# xmcd
#
# Track frame offsets:
# 150
# 16379
# 33168
# 48859
# 63174
# 94940
# 115078
# 137307
# 156214
# 170852
# 185840
# 212599
#
# Disc length: 3034 seconds
#
#
# Revision: 3
# Processed by: cddbd v1.5.1PL0 Copyright (c) Steve Scherf et al.
# Submitted via: FreeRIP 2.90 
#
DISCID=9c0bd80c
DTITLE=Grant and Forsyth - A Wonderful Christmas
DYEAR=1997
DGENRE=Christmas
TTITLE0=The Greatest Gift Of All
TTITLE1=White Christmas
TTITLE2=It's Gonna Be a Cold , Cold Christmas Without You
TTITLE3=Mary's Boy Child
TTITLE4=Winter Wonderland medley
TTITLE5=Tennesee Christmas
TTITLE6=Little Drummer Boy
TTITLE7=Have Yourself a Merry Little Christmas
TTITLE8=It Must Be Christmas
TTITLE9=When A Child Is Born
TTITLE10=Silent Night Medley
TTITLE11=Christmas Song
EXTD=Tracks Licensed from Dino Music B.V. ©
EXTT0=
EXTT1=
EXTT2=
EXTT3=
EXTT4=
EXTT5=
EXTT6=
EXTT7=
EXTT8=
EXTT9=
EXTT10=
EXTT11=
PLAYORDER=
